<svg width="300" height="80" viewBox="0 0 300 80" fill="none" xmlns="http://www.w3.org/2000/svg">
  <!-- Fondo transparente -->
  <rect width="300" height="80" fill="transparent"/>
  
  <!-- 13 MENTIRAS con tipografía número 2 (bubble letters) -->
  <g filter="drop-shadow(2px 2px 4px rgba(0,0,0,0.5))">
    <!-- Número 1 -->
    <path d="M15 20 L15 60 L25 60 L25 25 L35 35 L35 20 Z" fill="#ffffff"/>
    
    <!-- Número 3 -->
    <path d="M40 20 C45 20, 50 25, 50 30 C50 35, 45 40, 40 40 C45 40, 50 45, 50 50 C50 55, 45 60, 40 60 L35 60 C40 60, 45 55, 45 50 C45 45, 40 40, 35 40 C40 40, 45 35, 45 30 C45 25, 40 20, 35 20 Z" fill="#ffffff"/>
    
    <!-- M -->
    <path d="M60 60 L60 20 L70 40 L80 20 L80 60 L75 60 L75 25 L70 45 L65 25 L65 60 Z" fill="#ffffff"/>
    
    <!-- E -->
    <path d="M85 20 L85 60 L110 60 L110 55 L90 55 L90 45 L105 45 L105 40 L90 40 L90 25 L110 25 L110 20 Z" fill="#ffffff"/>
    
    <!-- N -->
    <path d="M115 20 L115 60 L125 60 L125 35 L135 60 L145 60 L145 20 L140 20 L140 45 L130 20 Z" fill="#ffffff"/>
    
    <!-- T -->
    <path d="M150 20 L150 60 L170 60 L170 55 L155 55 L155 20 Z" fill="#ffffff"/>
    
    <!-- I -->
    <path d="M175 20 L175 60 L180 60 L180 20 Z" fill="#ffffff"/>
    
    <!-- R -->
    <path d="M185 20 L185 60 L200 60 C205 60, 210 55, 210 50 C210 45, 205 40, 200 40 L190 40 L190 20 Z M190 45 L200 45 C202 45, 205 47, 205 50 C205 53, 202 55, 200 55 L190 55 Z" fill="#ffffff"/>
    
    <!-- A -->
    <path d="M215 60 L215 20 L225 20 L225 50 L235 20 L245 20 L235 50 L235 60 Z M220 55 L230 55 L230 45 L225 55 Z" fill="#ffffff"/>
    
    <!-- S -->
    <path d="M250 20 C255 20, 260 25, 260 30 C260 35, 255 40, 250 40 C245 40, 240 45, 240 50 C240 55, 245 60, 250 60 L255 60 C250 60, 245 55, 245 50 C245 45, 250 40, 255 40 C260 40, 265 35, 265 30 C265 25, 260 20, 255 20 Z" fill="#ffffff"/>
  </g>
  
  <!-- Efecto de brillo -->
  <defs>
    <filter id="glow">
      <feGaussianBlur stdDeviation="3" result="coloredBlur"/>
      <feMerge> 
        <feMergeNode in="coloredBlur"/>
        <feMergeNode in="SourceGraphic"/>
      </feMerge>
    </filter>
  </defs>
</svg> 